<svg width="20" height="20" viewBox="0 0 20 20" fill="none" xmlns="http://www.w3.org/2000/svg">
<path d="M5 16.6667C5.91667 16.6667 6.66667 15.9167 6.66667 15V9.16666C6.66667 8.24999 5.91667 7.49999 5 7.49999C4.08333 7.49999 3.33333 8.24999 3.33333 9.16666V15C3.33333 15.9167 4.08333 16.6667 5 16.6667Z" fill="#5D4AD4"/>
<path d="M13.3333 12.5V15C13.3333 15.9167 14.0833 16.6667 15 16.6667C15.9167 16.6667 16.6667 15.9167 16.6667 15V12.5C16.6667 11.5833 15.9167 10.8333 15 10.8333C14.0833 10.8333 13.3333 11.5833 13.3333 12.5Z" fill="#5D4AD4"/>
<path d="M10 16.6667C10.9167 16.6667 11.6667 15.9167 11.6667 15V4.99999C11.6667 4.08333 10.9167 3.33333 10 3.33333C9.08333 3.33333 8.33333 4.08333 8.33333 4.99999V15C8.33333 15.9167 9.08333 16.6667 10 16.6667Z" fill="#5D4AD4"/>
</svg>
