<svg width="37" height="36" viewBox="0 0 37 36" fill="none" xmlns="http://www.w3.org/2000/svg">
<rect x="0.5" width="36" height="36" rx="7" fill="#E1FFED"/>
<path d="M18.5 8C12.98 8 8.5 12.48 8.5 18C8.5 23.52 12.98 28 18.5 28C24.02 28 28.5 23.52 28.5 18C28.5 12.48 24.02 8 18.5 8ZM18.5 26C14.09 26 10.5 22.41 10.5 18C10.5 13.59 14.09 10 18.5 10C22.91 10 26.5 13.59 26.5 18C26.5 22.41 22.91 26 18.5 26ZM22.38 14.29L16.5 20.17L14.62 18.29C14.23 17.9 13.6 17.9 13.21 18.29C12.82 18.68 12.82 19.31 13.21 19.7L15.8 22.29C16.19 22.68 16.82 22.68 17.21 22.29L23.8 15.7C24.19 15.31 24.19 14.68 23.8 14.29C23.41 13.9 22.77 13.9 22.38 14.29Z" fill="#167B59"/>
</svg>
