<svg width="16" height="17" viewBox="0 0 16 17" fill="none" xmlns="http://www.w3.org/2000/svg">
<path d="M11.0306 6.1725C11.1005 6.24218 11.156 6.32497 11.1939 6.41614C11.2317 6.5073 11.2512 6.60504 11.2512 6.70375C11.2512 6.80246 11.2317 6.9002 11.1939 6.99136C11.156 7.08253 11.1005 7.16532 11.0306 7.235L7.53063 10.735C7.46095 10.8049 7.37816 10.8604 7.28699 10.8983C7.19583 10.9361 7.09809 10.9556 6.99938 10.9556C6.90067 10.9556 6.80293 10.9361 6.71176 10.8983C6.6206 10.8604 6.53781 10.8049 6.46813 10.735L4.96813 9.235C4.89836 9.16524 4.84302 9.08241 4.80527 8.99126C4.76751 8.90011 4.74808 8.80241 4.74808 8.70375C4.74808 8.60509 4.76751 8.50739 4.80527 8.41624C4.84302 8.32509 4.89836 8.24226 4.96813 8.1725C5.03789 8.10274 5.12072 8.04739 5.21187 8.00964C5.30302 7.97188 5.40072 7.95245 5.49938 7.95245C5.59804 7.95245 5.69574 7.97188 5.78689 8.00964C5.87804 8.04739 5.96086 8.10274 6.03063 8.1725L7 9.14062L9.96938 6.17063C10.0392 6.10102 10.122 6.04584 10.2131 6.00826C10.3042 5.97068 10.4018 5.95142 10.5004 5.9516C10.599 5.95177 10.6965 5.97137 10.7875 6.00927C10.8785 6.04718 10.9611 6.10264 11.0306 6.1725ZM14.75 8.20312C14.75 9.53815 14.3541 10.8432 13.6124 11.9532C12.8707 13.0633 11.8165 13.9284 10.5831 14.4393C9.34971 14.9502 7.99252 15.0839 6.68314 14.8234C5.37377 14.563 4.17104 13.9201 3.22703 12.9761C2.28303 12.0321 1.64015 10.8294 1.3797 9.51998C1.11925 8.21061 1.25292 6.85341 1.76382 5.62001C2.27471 4.38661 3.13987 3.3324 4.2499 2.59071C5.35994 1.84901 6.66498 1.45313 8 1.45312C9.78961 1.45511 11.5053 2.16691 12.7708 3.43235C14.0362 4.69779 14.748 6.41352 14.75 8.20312ZM13.25 8.20312C13.25 7.16477 12.9421 6.14974 12.3652 5.28638C11.7883 4.42302 10.9684 3.75012 10.0091 3.35276C9.04978 2.9554 7.99418 2.85143 6.97578 3.054C5.95738 3.25657 5.02192 3.75659 4.28769 4.49081C3.55347 5.22504 3.05345 6.1605 2.85088 7.1789C2.64831 8.1973 2.75228 9.2529 3.14964 10.2122C3.547 11.1715 4.2199 11.9915 5.08326 12.5683C5.94662 13.1452 6.96165 13.4531 8 13.4531C9.39193 13.4516 10.7264 12.898 11.7107 11.9138C12.6949 10.9295 13.2485 9.59505 13.25 8.20312Z" fill="#58728D"/>
</svg>
