<svg width="115" height="24" viewBox="0 0 115 24" fill="none" xmlns="http://www.w3.org/2000/svg">
<path d="M12.7417 -0.000293732V4.121H10.1118C2.32072 4.121 0.706704 9.94821 0.706704 14.1372C0.585883 16.8817 1.51992 19.5685 3.31718 21.6462C4.04189 22.3999 4.91533 22.9948 5.88209 23.3931C6.84886 23.7914 7.88785 23.9844 8.93317 23.96C10.2532 23.9991 11.5627 23.7134 12.7465 23.128L12.7755 23.5472H17.9175V-0.000293732H12.7417ZM5.60356 13.9953C5.60356 12.004 6.17113 8.64217 9.89577 8.38096C10.4053 8.34548 11.7629 8.24229 12.7417 8.21004V18.5197C11.8627 19.0592 10.8528 19.3475 9.8216 19.3533C8.77761 19.4193 7.75009 19.0685 6.96443 18.3778C6.45526 17.7745 6.07198 17.0753 5.83716 16.3216C5.60234 15.5678 5.52072 14.7747 5.59711 13.9889L5.60356 13.9953Z" fill="#1A1311"/>
<path d="M31.3373 19.3955C30.1638 19.465 29.0103 19.0685 28.1274 18.2923C27.2446 17.5161 26.7038 16.4227 26.6226 15.25H39.08V15.0485C39.0994 13.2925 39.08 11.8059 39.022 11.1561C38.9984 10.0954 38.7575 9.05081 38.3141 8.08694C37.8707 7.12307 37.2343 6.26042 36.4442 5.55236C35.654 4.84429 34.727 4.30588 33.7205 3.97041C32.7139 3.63495 31.6493 3.50957 30.5924 3.60203C29.2448 3.54842 27.9031 3.80742 26.6722 4.35876C25.4414 4.91011 24.3549 5.73883 23.4978 6.78007C21.9274 8.88186 21.1152 11.4536 21.1937 14.0762C21.1937 18.8408 23.8832 23.9408 31.434 23.9408C33.9729 23.9088 36.4753 23.332 38.7721 22.2494V17.4751C36.5039 18.7532 33.9407 19.4152 31.3373 19.3955ZM30.5875 8.00549C31.4391 7.97684 32.2685 8.28044 32.9004 8.85213C33.5323 9.42383 33.9171 10.2188 33.9736 11.0691H26.7178C26.8966 10.1839 27.3837 9.39092 28.0922 8.83114C28.8008 8.27135 29.685 7.98108 30.5875 8.01194V8.00549Z" fill="#1A1311"/>
<path d="M54.6622 12.0415V23.5428H59.8218V11.2789C59.8218 6.15467 57.4516 3.65706 52.5806 3.65706C51.1355 3.72321 49.7103 4.02043 48.3593 4.53743L48.3335 4.11821H43.1899V23.5428H48.3593V8.99249C49.6447 8.26005 51.154 8.02428 52.6015 8.3298C53.9898 8.64583 54.6622 9.52297 54.6622 12.0415Z" fill="#1A1311"/>
<path d="M103.52 15.6094V4.11135H98.3506V16.3656C98.3506 21.4995 100.729 24.0003 105.606 24.0003C107.054 23.9307 108.482 23.6319 109.836 23.1151L109.861 23.5343H115V4.1049H109.841V18.6552C108.556 19.3911 107.045 19.6287 105.597 19.3227C104.196 19.0083 103.52 18.1295 103.52 15.6094Z" fill="#1A1311"/>
<path d="M64.1848 -0.000106812V16.8543C64.0411 18.6456 64.4824 20.4352 65.4425 21.9543C66.0599 22.6721 66.8418 23.2298 67.7214 23.5799C68.6011 23.93 69.5523 24.0621 70.4941 23.965C72.1344 23.9464 73.7636 23.6917 75.3313 23.2088V18.557C74.0557 18.8803 72.7525 19.0827 71.439 19.1616C70.8587 19.2195 70.2791 19.0457 69.8266 18.6779C69.4052 18.0696 69.2322 17.3232 69.3429 16.5915V8.38437C71.3858 8.38437 73.9156 8.52465 75.3216 8.67944V4.11312H69.3429V-0.000106812H64.1848Z" fill="#1A1311"/>
<path d="M93.9678 14.1143C92.9359 12.6825 91.3429 11.9521 88.4196 11.3991C87.2249 11.2431 86.0561 10.9303 84.9432 10.4687C84.7706 10.3943 84.6224 10.2726 84.5157 10.1177C84.409 9.96287 84.3482 9.78105 84.3402 9.59317C84.3544 9.41527 84.4153 9.24425 84.5166 9.09735C84.6179 8.95044 84.7562 8.83282 84.9174 8.75633C86.2526 8.22737 87.7228 8.14312 89.1097 8.51609C90.7812 8.83985 92.419 9.31865 94.0017 9.94628V5.24775C91.8733 4.13442 89.4971 3.57963 87.0958 3.63535C85.1131 3.60123 83.1694 4.18752 81.5362 5.31225C80.8061 5.85175 80.2087 6.55076 79.7896 7.35604C79.3705 8.16133 79.1407 9.05165 79.1176 9.95918C78.9725 13.184 80.9864 15.1092 85.6511 16.0089C86.6615 16.184 87.6583 16.4302 88.634 16.7458C89.2484 16.9909 89.6015 17.3907 89.6015 17.839C89.5909 18.0721 89.5104 18.2967 89.3703 18.4833C89.2302 18.67 89.0371 18.8101 88.8162 18.8854C87.778 19.1873 86.6868 19.2616 85.6172 19.1031C83.5027 18.8584 81.4347 18.3093 79.4772 17.473V22.294C81.6455 23.4105 84.0523 23.9843 86.4912 23.9661C89.8772 23.9032 94.0694 22.9051 94.8385 18.4404C94.9896 17.6977 94.9904 16.9323 94.8408 16.1893C94.6913 15.4463 94.3945 14.7408 93.9678 14.1143Z" fill="#1A1311"/>
</svg>
