<svg width="20" height="20" viewBox="0 0 20 20" fill="none" xmlns="http://www.w3.org/2000/svg">
<path d="M4.16667 3.33334H7.65C8 2.36667 8.91667 1.66667 10 1.66667C11.0833 1.66667 12 2.36667 12.35 3.33334H15.8333C16.75 3.33334 17.5 4.08334 17.5 5.00001V16.6667C17.5 17.5833 16.75 18.3333 15.8333 18.3333H4.16667C3.25 18.3333 2.5 17.5833 2.5 16.6667V5.00001C2.5 4.08334 3.25 3.33334 4.16667 3.33334ZM10 3.12501C9.65833 3.12501 9.375 3.40834 9.375 3.75001C9.375 4.09167 9.65833 4.37501 10 4.37501C10.3417 4.37501 10.625 4.09167 10.625 3.75001C10.625 3.40834 10.3417 3.12501 10 3.12501ZM4.16667 16.6667H15.8333V5.00001H4.16667V16.6667Z" fill="#4838B0"/>
<path d="M7.43333 10.025L9.2 8.25834L14.1667 13.2167V15H12.4167L7.43333 10.025Z" fill="#4838B0"/>
<path d="M5.95833 8.55834C5.79167 8.39167 5.79167 8.13334 5.95833 7.96667L7.13333 6.79167C7.3 6.62501 7.55833 6.62501 7.725 6.79167L8.60833 7.67501L6.84167 9.44167L5.95833 8.55834Z" fill="#4838B0"/>
</svg>
