<svg width="20" height="21" viewBox="0 0 20 21" fill="none" xmlns="http://www.w3.org/2000/svg">
<path d="M5.71401 1.45312C5.12472 1.45312 4.64258 1.94531 4.64258 2.54688V17.8594C4.64258 18.4609 5.12472 18.9531 5.71401 18.9531H16.4283C17.0176 18.9531 17.4997 18.4609 17.4997 17.8594V5.82812L13.214 1.45312H5.71401Z" fill="#CBD5E2"/>
<path d="M14.2858 5.82812H17.5001L13.2144 1.45312V4.73438C13.2144 5.33594 13.6965 5.82812 14.2858 5.82812Z" fill="#90A5BB"/>
<path d="M17.4999 9.10938L14.2856 5.82812H17.4999V9.10938Z" fill="#CBD5E2"/>
<path d="M15.3571 15.6719C15.3571 15.9726 15.1161 16.2187 14.8214 16.2187H3.03571C2.74107 16.2187 2.5 15.9726 2.5 15.6719V10.2031C2.5 9.90232 2.74107 9.65623 3.03571 9.65623H14.8214C15.1161 9.65623 15.3571 9.90232 15.3571 10.2031V15.6719Z" fill="#F15642"/>
<path d="M4.83545 11.8148C4.83545 11.6704 4.94688 11.5129 5.12634 11.5129H6.11581C6.67295 11.5129 7.17438 11.8936 7.17438 12.6231C7.17438 13.3143 6.67295 13.6993 6.11581 13.6993H5.40063V14.2768C5.40063 14.4693 5.28063 14.5782 5.12634 14.5782C4.98491 14.5782 4.83545 14.4693 4.83545 14.2768V11.8148ZM5.40063 12.0636V13.153H6.11581C6.40295 13.153 6.63009 12.8943 6.63009 12.6231C6.63009 12.3174 6.40295 12.0636 6.11581 12.0636H5.40063ZM8.01331 14.5782C7.87188 14.5782 7.71759 14.4994 7.71759 14.3075V11.8236C7.71759 11.6666 7.87188 11.5523 8.01331 11.5523H8.9942C10.9517 11.5523 10.9088 14.5782 9.03277 14.5782H8.01331ZM8.28331 12.0861V14.045H8.9942C10.1508 14.045 10.2022 12.0861 8.9942 12.0861H8.28331ZM11.6031 12.1211V12.8161H12.6954C12.8497 12.8161 13.004 12.9736 13.004 13.1262C13.004 13.2706 12.8497 13.3887 12.6954 13.3887H11.6031V14.3069C11.6031 14.46 11.4965 14.5776 11.3465 14.5776C11.1579 14.5776 11.0428 14.46 11.0428 14.3069V11.823C11.0428 11.6661 11.1585 11.5518 11.3465 11.5518H12.8503C13.0388 11.5518 13.1503 11.6661 13.1503 11.823C13.1503 11.963 13.0388 12.1205 12.8503 12.1205H11.6031V12.1211Z" fill="white"/>
<path d="M14.8212 16.2188H4.64258V16.7656H14.8212C15.1158 16.7656 15.3569 16.5195 15.3569 16.2188V15.6719C15.3569 15.9727 15.1158 16.2188 14.8212 16.2188Z" fill="#CAD1D8"/>
</svg>
