<svg width="109" height="29" viewBox="0 0 109 29" fill="none" xmlns="http://www.w3.org/2000/svg">
<rect width="28.0976" height="28.0976" rx="14.0488" fill="#D44A4A"/>
<g filter="url(#filter0_d_222_28788)">
<rect x="8.58398" y="7.80469" width="10.9268" height="13.2683" rx="2.14035" fill="#FFF5F5"/>
<rect x="10.9258" y="14.0488" width="6.2439" height="0.780488" rx="0.390244" fill="#D44A4A"/>
<rect x="10.9258" y="17.171" width="6.2439" height="0.780488" rx="0.390244" fill="#D44A4A"/>
<rect x="10.9258" y="10.9252" width="6.2439" height="0.780488" rx="0.390244" fill="#D44A4A"/>
</g>
<path fill-rule="evenodd" clip-rule="evenodd" d="M64.3814 0.517216C64.6055 0.292182 64.8757 0.179664 65.1919 0.179664C65.5093 0.179664 65.78 0.292182 66.0042 0.517216C66.2271 0.74104 66.3386 1.01144 66.3386 1.32843C66.3386 1.64783 66.2271 1.92005 66.0042 2.14508C65.7813 2.37012 65.5105 2.48264 65.1919 2.48264C64.8732 2.48264 64.6025 2.37012 64.3795 2.14508C64.1578 1.92005 64.047 1.64783 64.047 1.32843C64.047 1.01144 64.1584 0.74104 64.3814 0.517216ZM66.1368 2.27393C66.3973 2.0126 66.5275 1.69744 66.5275 1.32843C66.5275 0.96063 66.3973 0.647276 66.1368 0.388366C65.8764 0.129455 65.5614 0 65.1919 0C64.8248 0 64.5116 0.129455 64.2523 0.388366C63.9919 0.648486 63.8616 0.96184 63.8616 1.32843C63.8616 1.69865 63.9906 2.01381 64.2487 2.27393C64.508 2.53526 64.8223 2.66593 65.1919 2.66593C65.5614 2.66593 65.8764 2.53526 66.1368 2.27393ZM65.4426 0.823916C65.5081 0.860211 65.5408 0.931593 65.5408 1.03806C65.5408 1.15058 65.4905 1.2268 65.3899 1.26672C65.3354 1.2885 65.2536 1.29939 65.1446 1.29939H64.912V0.769472H65.1319C65.2748 0.769472 65.3784 0.78762 65.4426 0.823916ZM65.5662 0.646066C65.4814 0.61098 65.3481 0.593437 65.1664 0.593437H64.6539V2.05616H64.912V1.47906H65.1155C65.2524 1.47906 65.3481 1.49478 65.4027 1.52624C65.4947 1.58068 65.5408 1.6926 65.5408 1.86198V1.97812L65.5462 2.02531C65.5474 2.03136 65.5486 2.0368 65.5499 2.04164L65.5535 2.05616H65.7952L65.7861 2.03801C65.78 2.02591 65.7758 2.00051 65.7734 1.96179C65.771 1.92307 65.7697 1.88678 65.7697 1.8529V1.74583C65.7697 1.67203 65.7431 1.59641 65.6898 1.51898C65.6365 1.44155 65.5523 1.39376 65.4372 1.37561C65.5281 1.36109 65.5989 1.3375 65.6498 1.30484C65.7455 1.24313 65.7934 1.14695 65.7934 1.01628C65.7934 0.832385 65.7177 0.708979 65.5662 0.646066ZM35.1225 7.49976C34.9174 7.17385 34.8149 6.76928 34.8149 6.28604C34.8149 5.7185 34.9329 5.28864 35.1689 4.99645C35.4077 4.70426 35.7182 4.55816 36.1003 4.55816C36.443 4.55816 36.731 4.69583 36.9642 4.97116C37.1974 5.24369 37.314 5.66512 37.314 6.23546C37.314 6.80018 37.2002 7.23426 36.9726 7.53769C36.7479 7.83831 36.4599 7.98862 36.1087 7.98862C35.6563 7.98862 35.3276 7.82567 35.1225 7.49976ZM36.8251 4.11565C36.5919 3.96956 36.3025 3.89651 35.957 3.89651C35.3332 3.89651 34.8528 4.13813 34.5157 4.62137C34.1813 5.10181 34.0142 5.67074 34.0142 6.32818C34.0142 7.03057 34.1982 7.59388 34.5662 8.01812C34.9343 8.43956 35.3698 8.65027 35.8727 8.65027C36.1845 8.65027 36.4613 8.58846 36.7029 8.46484C36.9445 8.34122 37.1538 8.14034 37.3308 7.86219V8.49013H38.0136V2.27821H37.2845V4.55816C37.1131 4.34744 36.96 4.19994 36.8251 4.11565ZM40.4199 2.29928H39.2189V8.49013H40.0196V4.83631C40.0196 4.69021 40.0154 4.46263 40.0069 4.15358C40.0013 3.84172 39.9985 3.60994 39.9985 3.45822V3.26857L41.777 8.49013H42.6072L44.373 3.26857C44.373 3.60291 44.3702 3.91618 44.3646 4.20837C44.3589 4.50056 44.3561 4.70988 44.3561 4.83631V8.49013H45.1526V2.29928H43.9642L42.1984 7.53348L40.4199 2.29928ZM48.6674 3.218L49.6072 5.9531H47.6686L48.6674 3.218ZM49.1773 2.29928H48.2291L45.8986 8.49013H46.7583L47.4284 6.63582H49.8769L50.5048 8.49013H51.4236L49.1773 2.29928ZM56.6198 2.75021C56.1872 2.33721 55.5789 2.13071 54.795 2.13071C53.8763 2.13071 53.1556 2.44818 52.6331 3.08314C52.1498 3.66753 51.9082 4.41628 51.9082 5.32938C51.9082 6.53187 52.2299 7.42109 52.8733 7.99705C53.3622 8.43253 53.9662 8.65027 54.6854 8.65027C55.5199 8.65027 56.1829 8.38477 56.6746 7.85377C57.0848 7.41267 57.3264 6.86621 57.3995 6.21439H56.5819C56.4976 6.62178 56.3698 6.95049 56.1984 7.20054C55.8753 7.67536 55.4047 7.91277 54.7866 7.91277C54.1151 7.91277 53.6094 7.688 53.2694 7.23847C52.9323 6.78614 52.7637 6.19753 52.7637 5.47267C52.7637 4.58766 52.9506 3.93163 53.3242 3.50458C53.7007 3.07472 54.1938 2.85978 54.8035 2.85978C55.3036 2.85978 55.6913 2.97638 55.9666 3.20957C56.2448 3.44277 56.4302 3.75884 56.5229 4.1578H57.3405C57.2927 3.63241 57.0525 3.16322 56.6198 2.75021ZM63.6662 8.98321L64.0876 8.47327L63.2363 7.81162C63.5903 7.45762 63.8418 6.99966 63.9907 6.43775C64.089 6.0697 64.1382 5.6862 64.1382 5.28724C64.1382 4.43313 63.9331 3.73215 63.5229 3.18429C62.9975 2.4819 62.1884 2.13071 61.0954 2.13071C60.0503 2.13071 59.2608 2.5128 58.727 3.277C58.3112 3.87263 58.1033 4.58906 58.1033 5.42631C58.1033 6.34785 58.3435 7.11485 58.8239 7.72734C59.369 8.35668 60.1219 8.67135 61.0828 8.67135C61.4003 8.67135 61.6925 8.63342 61.9594 8.55756C62.2291 8.4817 62.4791 8.38056 62.7095 8.25413L63.6662 8.98321ZM61.6728 7.88748C61.5211 7.90996 61.3581 7.9212 61.1839 7.9212C60.4591 7.9212 59.9084 7.70064 59.5319 7.25955C59.1583 6.81845 58.9714 6.22563 58.9714 5.4811C58.9714 4.59609 59.1667 3.94146 59.5572 3.51722C59.9477 3.09017 60.4773 2.87664 61.146 2.87664C61.8063 2.87664 62.326 3.0986 62.7053 3.54251C63.0874 3.98642 63.2785 4.57221 63.2785 5.29988C63.2785 5.63141 63.2321 5.97839 63.1394 6.34082C63.0495 6.70325 62.8767 7.03057 62.621 7.32276L61.8119 6.69482L61.3904 7.21319L62.069 7.74419C61.9566 7.81443 61.8245 7.86219 61.6728 7.88748Z" fill="#B1C1D2"/>
<path d="M38.7029 24.9415H35.3664V12.403H42.7771V15.1249H38.7029V17.5132H42.461V20.2352H38.7029V24.9415ZM56.1245 18.6547C56.1245 19.6264 56.0074 20.5103 55.7733 21.3064C55.5392 22.0908 55.1762 22.7698 54.6845 23.3435C54.1928 23.9171 53.5606 24.3562 52.7879 24.6606C52.027 24.9649 51.1079 25.1171 50.0309 25.1171C48.9772 25.1171 48.064 24.9649 47.2914 24.6606C46.5304 24.3562 45.8982 23.9171 45.3948 23.3435C44.9031 22.7698 44.5343 22.0908 44.2884 21.3064C44.0543 20.5103 43.9372 19.6206 43.9372 18.6371C43.9372 17.3376 44.1538 16.2079 44.587 15.2479C45.0201 14.2762 45.6875 13.5269 46.5889 13.0001C47.4904 12.4732 48.6435 12.2098 50.0484 12.2098C51.4767 12.2098 52.6357 12.4791 53.5255 13.0176C54.427 13.5445 55.0826 14.2937 55.4923 15.2654C55.9138 16.2254 56.1245 17.3552 56.1245 18.6547ZM47.5021 18.6547C47.5021 19.404 47.584 20.0537 47.7479 20.604C47.9235 21.1425 48.1987 21.5581 48.5733 21.8508C48.9479 22.1435 49.4338 22.2898 50.0309 22.2898C50.6514 22.2898 51.1431 22.1435 51.506 21.8508C51.8806 21.5581 52.1499 21.1425 52.3138 20.604C52.4777 20.0537 52.5596 19.404 52.5596 18.6547C52.5596 17.5191 52.3723 16.6235 51.9977 15.9679C51.6231 15.3123 50.9733 14.9845 50.0484 14.9845C49.4396 14.9845 48.9479 15.1367 48.5733 15.441C48.1987 15.7337 47.9235 16.1552 47.7479 16.7054C47.584 17.244 47.5021 17.8937 47.5021 18.6547ZM62.0579 12.403C63.1935 12.403 64.136 12.5435 64.8853 12.8245C65.6462 13.1054 66.214 13.521 66.5887 14.0713C66.975 14.6098 67.1682 15.2888 67.1682 16.1084C67.1682 16.6118 67.0804 17.0742 66.9048 17.4957C66.7409 17.9171 66.5009 18.2918 66.1848 18.6196C65.8687 18.9474 65.4882 19.2342 65.0433 19.4801L68.696 24.9415H64.8501L62.1984 20.3757H61.3379V24.9415H57.9487V12.403H62.0579ZM62.0053 14.9669H61.3379V17.8293H61.9701C62.3213 17.8293 62.6257 17.7825 62.8833 17.6888C63.1526 17.5835 63.3633 17.4196 63.5155 17.1971C63.6677 16.963 63.7438 16.6527 63.7438 16.2664C63.7438 15.9971 63.6853 15.7688 63.5682 15.5815C63.4511 15.3825 63.2638 15.2303 63.0062 15.1249C62.7487 15.0196 62.415 14.9669 62.0053 14.9669ZM74.8556 24.9415L72.2917 15.9152H72.2215C72.2449 16.1493 72.2683 16.4654 72.2917 16.8635C72.3151 17.2615 72.3386 17.6947 72.362 18.163C72.3854 18.6196 72.3971 19.0645 72.3971 19.4976V24.9415H69.3942V12.403H73.9073L76.5239 21.3064H76.5942L79.1581 12.403H83.6712V24.9415H80.5629V19.4449C80.5629 19.0469 80.5688 18.6254 80.5805 18.1806C80.5922 17.724 80.6098 17.2967 80.6332 16.8986C80.6566 16.4888 80.6742 16.1669 80.6859 15.9327H80.6156L78.0868 24.9415H74.8556ZM94.134 21.1308C94.134 21.8098 93.9584 22.4537 93.6072 23.0625C93.2677 23.6713 92.735 24.1688 92.0091 24.5552C91.295 24.9298 90.3643 25.1171 89.2169 25.1171C88.6433 25.1171 88.1399 25.0879 87.7067 25.0293C87.2852 24.9825 86.8872 24.9006 86.5125 24.7835C86.1379 24.6664 85.7516 24.5142 85.3535 24.3269V21.3064C86.0325 21.6459 86.7174 21.9093 87.4082 22.0967C88.0989 22.2723 88.7252 22.3601 89.2872 22.3601C89.6267 22.3601 89.9018 22.3191 90.1125 22.2371C90.3233 22.1552 90.4813 22.044 90.5867 21.9035C90.6921 21.763 90.7447 21.6049 90.7447 21.4293C90.7447 21.2069 90.6686 21.0196 90.5165 20.8674C90.3643 20.7152 90.1243 20.5571 89.7965 20.3932C89.4686 20.2293 89.0296 20.0245 88.4794 19.7786C88.0111 19.5679 87.5896 19.3454 87.215 19.1113C86.8404 18.8771 86.5184 18.6137 86.2491 18.321C85.9916 18.0284 85.7925 17.6888 85.6521 17.3025C85.5116 16.9045 85.4413 16.4362 85.4413 15.8976C85.4413 15.0898 85.6404 14.4167 86.0384 13.8781C86.4365 13.3279 86.9867 12.9181 87.6891 12.6488C88.4033 12.3679 89.2286 12.2274 90.1652 12.2274C90.9847 12.2274 91.7223 12.321 92.3779 12.5084C93.0335 12.684 93.6189 12.8888 94.134 13.123L93.0979 15.7396C92.5594 15.4937 92.0267 15.3006 91.4999 15.1601C90.9847 15.0079 90.5047 14.9318 90.0599 14.9318C89.7672 14.9318 89.5272 14.9669 89.3399 15.0371C89.1525 15.1074 89.0121 15.2069 88.9184 15.3357C88.8365 15.4527 88.7955 15.5874 88.7955 15.7396C88.7955 15.9386 88.8716 16.1142 89.0238 16.2664C89.176 16.4186 89.4277 16.5884 89.7789 16.7757C90.1418 16.9513 90.6335 17.1796 91.254 17.4606C91.8628 17.7298 92.3779 18.0284 92.7994 18.3562C93.2325 18.6723 93.5604 19.0527 93.7828 19.4976C94.0169 19.9308 94.134 20.4752 94.134 21.1308Z" fill="white"/>
<path d="M106.734 20.0958H103.645V23.2553H100.77V20.0958H97.6815V17.3801H100.77V14.2028H103.645V17.3801H106.734V20.0958Z" fill="white"/>
<defs>
<filter id="filter0_d_222_28788" x="8.58398" y="7.80469" width="11.7294" height="14.0709" filterUnits="userSpaceOnUse" color-interpolation-filters="sRGB">
<feFlood flood-opacity="0" result="BackgroundImageFix"/>
<feColorMatrix in="SourceAlpha" type="matrix" values="0 0 0 0 0 0 0 0 0 0 0 0 0 0 0 0 0 0 127 0" result="hardAlpha"/>
<feOffset dx="0.80263" dy="0.80263"/>
<feComposite in2="hardAlpha" operator="out"/>
<feColorMatrix type="matrix" values="0 0 0 0 0 0 0 0 0 0 0 0 0 0 0 0 0 0 0.25 0"/>
<feBlend mode="normal" in2="BackgroundImageFix" result="effect1_dropShadow_222_28788"/>
<feBlend mode="normal" in="SourceGraphic" in2="effect1_dropShadow_222_28788" result="shape"/>
</filter>
</defs>
</svg>
