<svg width="20" height="20" viewBox="0 0 20 20" fill="none" xmlns="http://www.w3.org/2000/svg">
<path d="M12.1583 2.15834C11.8417 1.84167 11.4167 1.66667 10.975 1.66667H5C4.08333 1.66667 3.33333 2.41667 3.33333 3.33334V16.6667C3.33333 17.5833 4.075 18.3333 4.99167 18.3333H15C15.9167 18.3333 16.6667 17.5833 16.6667 16.6667V7.35834C16.6667 6.91667 16.4917 6.49167 16.175 6.18334L12.1583 2.15834ZM12.5 15H7.5C7.04167 15 6.66667 14.625 6.66667 14.1667C6.66667 13.7083 7.04167 13.3333 7.5 13.3333H12.5C12.9583 13.3333 13.3333 13.7083 13.3333 14.1667C13.3333 14.625 12.9583 15 12.5 15ZM12.5 11.6667H7.5C7.04167 11.6667 6.66667 11.2917 6.66667 10.8333C6.66667 10.375 7.04167 10 7.5 10H12.5C12.9583 10 13.3333 10.375 13.3333 10.8333C13.3333 11.2917 12.9583 11.6667 12.5 11.6667ZM10.8333 6.66667V2.91667L15.4167 7.50001H11.6667C11.2083 7.50001 10.8333 7.12501 10.8333 6.66667Z" fill="#5D4AD4"/>
</svg>
