<svg width="97" height="28" viewBox="0 0 97 28" fill="none" xmlns="http://www.w3.org/2000/svg">
<path d="M28 14C28 6.26801 21.732 0 14 0C6.26801 0 0 6.26801 0 14C0 21.732 6.26801 28 14 28C21.732 28 28 21.732 28 14Z" fill="#5D4AD4"/>
<g filter="url(#filter0_d_1_521)">
<path d="M17.3115 7.77777H10.6885C9.5105 7.77777 8.55556 8.73271 8.55556 9.91069V18.8671C8.55556 20.0451 9.5105 21 10.6885 21H17.3115C18.4895 21 19.4444 20.0451 19.4444 18.8671V9.91069C19.4444 8.73271 18.4895 7.77777 17.3115 7.77777Z" fill="#FFF5F5"/>
<path d="M16.7219 14H11.2775C11.0627 14 10.8886 14.1741 10.8886 14.3889C10.8886 14.6037 11.0627 14.7778 11.2775 14.7778H16.7219C16.9367 14.7778 17.1108 14.6037 17.1108 14.3889C17.1108 14.1741 16.9367 14 16.7219 14Z" fill="#5D4AD4"/>
<path d="M16.7219 17.1111H11.2775C11.0627 17.1111 10.8886 17.2852 10.8886 17.5C10.8886 17.7148 11.0627 17.8889 11.2775 17.8889H16.7219C16.9367 17.8889 17.1108 17.7148 17.1108 17.5C17.1108 17.2852 16.9367 17.1111 16.7219 17.1111Z" fill="#5D4AD4"/>
<path d="M16.7219 10.8889H11.2775C11.0627 10.8889 10.8886 11.063 10.8886 11.2778C10.8886 11.4926 11.0627 11.6667 11.2775 11.6667H16.7219C16.9367 11.6667 17.1108 11.4926 17.1108 11.2778C17.1108 11.063 16.9367 10.8889 16.7219 10.8889Z" fill="#5D4AD4"/>
</g>
<path d="M37.3412 8.0075H37.3216C36.9766 8.47075 36.4553 8.71598 35.8869 8.71598C34.6639 8.71598 33.8956 7.65328 33.8956 6.4738C33.8956 5.2593 34.6482 4.21606 35.8947 4.21606C36.4514 4.21606 36.9845 4.48855 37.3216 4.9401H37.3412V1.10971H38.0507V8.59527H37.3412V8.0075ZM34.6247 6.4193C34.6247 7.25623 35.1029 8.04258 35.9888 8.04258C36.9022 8.04258 37.3804 7.28737 37.3804 6.42709C37.3804 5.5746 36.859 4.8856 35.981 4.8856C35.1539 4.8856 34.6247 5.62131 34.6247 6.4193Z" fill="#E2F0FF"/>
<path d="M40.2265 1.36642L42.6529 7.112L45.0872 1.36642L46.4434 8.599H45.683L44.8206 3.97062H44.8049L42.6529 8.87923L40.5087 3.97062H40.4891L39.6307 8.599H38.8702L40.2265 1.36642Z" fill="#E2F0FF"/>
<path d="M48.1178 6.65656L47.3104 8.59904H46.495L49.5761 1.42871L52.5787 8.59904H51.7555L50.9676 6.65656H48.1178ZM49.5604 3.20766L48.4197 5.9481H50.6776L49.5604 3.20766Z" fill="#E2F0FF"/>
<path d="M58.2153 3.25466C57.6821 2.69022 56.9491 2.34767 56.1808 2.34767C54.6952 2.34767 53.4879 3.67118 53.4879 5.17764C53.4879 6.6841 54.6991 8.00762 56.1965 8.00762C56.9491 8.00762 57.6821 7.64558 58.2153 7.10061V8.04262C57.639 8.47086 56.9334 8.71221 56.2239 8.71221C54.3384 8.71221 52.7431 7.14344 52.7431 5.201C52.7431 3.23909 54.311 1.63531 56.2239 1.63531C56.9687 1.63531 57.6233 1.8533 58.2153 2.30485V3.25466Z" fill="#E2F0FF"/>
<path d="M64.9812 8.04645C64.4324 8.47461 63.6445 8.71596 62.9702 8.71596C61.0652 8.71596 59.4894 7.15501 59.4894 5.18531C59.4894 3.22341 61.0652 1.6391 62.9702 1.6391C64.8989 1.6391 66.4512 3.24677 66.4512 5.20477C66.4512 6.15848 66.114 6.92922 65.4868 7.61823L66.4864 8.66144H65.5378L64.9812 8.04645ZM64.9694 7.07325C65.4633 6.53607 65.7024 5.91324 65.7024 5.17753C65.7024 3.61657 64.499 2.34756 62.9663 2.34756C61.4337 2.34756 60.2303 3.62825 60.2303 5.17753C60.2303 6.71902 61.4533 8.00748 62.9663 8.00748C63.4642 8.00748 64.0482 7.81677 64.452 7.50145L62.8409 5.83928H63.813L64.9694 7.07325Z" fill="#E2F0FF"/>
<path d="M67.173 2.09425C66.8828 2.09425 66.6359 1.99305 66.4321 1.78673C66.2283 1.58042 66.1263 1.33519 66.1263 1.04713C66.1263 0.755178 66.2283 0.50994 66.4321 0.303629C66.6359 0.10121 66.8828 0 67.173 0C67.463 0 67.71 0.10121 67.9138 0.303629C68.1176 0.506047 68.2195 0.755178 68.2195 1.04713C68.2195 1.33519 68.1176 1.58432 67.9138 1.78673C67.71 1.98915 67.463 2.09425 67.173 2.09425ZM67.173 1.86069C67.3964 1.86069 67.5846 1.77895 67.7452 1.61935C67.9059 1.45975 67.9883 1.26901 67.9883 1.04713C67.9883 0.825246 67.9099 0.630612 67.7492 0.471013C67.5884 0.311414 67.3964 0.229668 67.173 0.229668C66.9495 0.229668 66.7614 0.311414 66.6007 0.471013C66.4399 0.630612 66.3615 0.825246 66.3615 1.04713C66.3615 1.26901 66.4399 1.45975 66.6007 1.61935C66.7614 1.78284 66.9495 1.86069 67.173 1.86069ZM66.7535 1.68552V0.435979H67.1142C67.4356 0.435979 67.5924 0.544973 67.5924 0.762963C67.5924 0.914776 67.5062 1.03545 67.3336 1.12887L67.6276 1.68942H67.3611L67.0946 1.17948H66.9808V1.68942H66.7535V1.68552ZM66.9808 1.00042H67.0828C67.2474 1.00042 67.3298 0.926458 67.3298 0.782429C67.3298 0.665646 67.2514 0.607255 67.0907 0.607255H66.9808V1.00042Z" fill="#E2F0FF"/>
<path d="M38.4476 24.2719H35.0254V12.0546H41.9382V14.7068H38.4476V17.0339H41.6645V19.6862H38.4476V24.2719ZM54.5312 18.1462C54.5312 19.093 54.4228 19.9543 54.2061 20.7299C54.0007 21.4943 53.6699 22.1558 53.2136 22.7148C52.7687 23.2738 52.1869 23.7016 51.4683 23.9982C50.761 24.2947 49.8998 24.4431 48.8845 24.4431C47.8921 24.4431 47.0423 24.2947 46.3349 23.9982C45.6277 23.7016 45.0459 23.2738 44.5896 22.7148C44.1334 22.1558 43.7911 21.4943 43.5629 20.7299C43.3463 19.9543 43.2378 19.0873 43.2378 18.1291C43.2378 16.8628 43.4375 15.762 43.8367 14.8266C44.236 13.8798 44.852 13.1497 45.6847 12.6364C46.5175 12.1231 47.5898 11.8664 48.9016 11.8664C50.2477 11.8664 51.3314 12.1287 52.1527 12.6535C52.9855 13.1668 53.5901 13.8969 53.9665 14.8437C54.3429 15.7792 54.5312 16.8799 54.5312 18.1462ZM46.8996 18.1462C46.8996 18.8763 46.9624 19.5094 47.0878 20.0455C47.2247 20.5703 47.4415 20.9752 47.7381 21.2604C48.0347 21.5456 48.4168 21.6882 48.8845 21.6882C49.3865 21.6882 49.78 21.5456 50.0652 21.2604C50.3504 20.9752 50.5557 20.5703 50.6812 20.0455C50.8067 19.5094 50.8694 18.8763 50.8694 18.1462C50.8694 17.0396 50.7211 16.167 50.4245 15.5282C50.1394 14.8894 49.6317 14.5699 48.9016 14.5699C48.4111 14.5699 48.0176 14.7183 47.7209 15.0148C47.4244 15.3 47.2134 15.7107 47.0878 16.2468C46.9624 16.7716 46.8996 17.4047 46.8996 18.1462ZM60.4516 12.0546C61.4897 12.0546 62.3567 12.1915 63.0525 12.4653C63.7598 12.7391 64.2903 13.1441 64.6438 13.6802C64.9975 14.2049 65.1743 14.8665 65.1743 15.6651C65.1743 16.1556 65.1058 16.6062 64.9689 17.0168C64.8435 17.4275 64.6438 17.7925 64.3701 18.1119C64.1077 18.4314 63.7655 18.7108 63.3434 18.9504L66.6629 24.2719H62.6932L60.4345 19.8231H59.9383V24.2719H56.4476V12.0546H60.4516ZM60.4687 14.5528H59.9383V17.3419H60.4003C60.5943 17.3419 60.7882 17.2963 60.9821 17.2051C61.176 17.1024 61.3357 16.9427 61.4612 16.726C61.5981 16.4978 61.6665 16.1955 61.6665 15.8191C61.6665 15.5567 61.6266 15.3343 61.5467 15.1517C61.4669 14.9578 61.3414 14.8095 61.1703 14.7068C60.9992 14.6042 60.7654 14.5528 60.4687 14.5528ZM72.6609 24.2719L70.4536 15.3057H70.3852C70.408 15.5338 70.4308 15.8418 70.4536 16.2297C70.4765 16.6176 70.4993 17.0396 70.522 17.4959C70.5449 17.9408 70.5563 18.3743 70.5563 18.7964V24.2719H67.4763V12.0546H72.4898L74.2865 19.5835H74.3378L75.9976 12.0546H81.011V24.2719H77.8283V18.7451C77.8283 18.3572 77.8346 17.9465 77.8454 17.5131C77.8571 17.0682 77.8688 16.6518 77.8797 16.264C77.903 15.8647 77.9256 15.551 77.9481 15.3228H77.8797L75.8436 24.2719H72.6609Z" fill="white"/>
<path d="M94.5752 19.443H91.4967V22.5916H88.6314V19.443H85.5537V16.7368H88.6314V13.5705H91.4967V16.7368H94.5752V19.443Z" fill="white"/>
<defs>
<filter id="filter0_d_1_521" x="8.55556" y="7.77777" width="11.9173" height="14.2506" filterUnits="userSpaceOnUse" color-interpolation-filters="sRGB">
<feFlood flood-opacity="0" result="BackgroundImageFix"/>
<feColorMatrix in="SourceAlpha" type="matrix" values="0 0 0 0 0 0 0 0 0 0 0 0 0 0 0 0 0 0 127 0" result="hardAlpha"/>
<feOffset dx="1.02837" dy="1.02837"/>
<feComposite in2="hardAlpha" operator="out"/>
<feColorMatrix type="matrix" values="0 0 0 0 0 0 0 0 0 0 0 0 0 0 0 0 0 0 0.25 0"/>
<feBlend mode="normal" in2="BackgroundImageFix" result="effect1_dropShadow_1_521"/>
<feBlend mode="normal" in="SourceGraphic" in2="effect1_dropShadow_1_521" result="shape"/>
</filter>
</defs>
</svg>
