<svg width="24" height="24" viewBox="0 0 24 24" fill="none" xmlns="http://www.w3.org/2000/svg">
<path d="M6.85722 1.5C6.15007 1.5 5.5715 2.09062 5.5715 2.8125V21.1875C5.5715 21.9094 6.15007 22.5 6.85722 22.5H19.7144C20.4215 22.5 21.0001 21.9094 21.0001 21.1875V6.75L15.8572 1.5H6.85722Z" fill="#E3EAF3"/>
<path d="M17.1427 6.75H20.9999L15.857 1.5V5.4375C15.857 6.15938 16.4356 6.75 17.1427 6.75Z" fill="#90A5BB"/>
<path d="M20.9997 10.6875L17.1426 6.75H20.9997V10.6875Z" fill="#CBD5E2"/>
<path d="M18.429 18.5625C18.429 18.9234 18.1397 19.2188 17.7861 19.2188H3.64325C3.28968 19.2188 3.0004 18.9234 3.0004 18.5625V12C3.0004 11.6391 3.28968 11.3438 3.64325 11.3438H17.7861C18.1397 11.3438 18.429 11.6391 18.429 12V18.5625Z" fill="#F15642"/>
<path d="M5.80234 13.9345C5.80234 13.7613 5.93605 13.5723 6.15141 13.5723H7.33877C8.00734 13.5723 8.60905 14.029 8.60905 14.9045C8.60905 15.734 8.00734 16.196 7.33877 16.196H6.48055V16.889C6.48055 17.12 6.33655 17.2505 6.15141 17.2505C5.98169 17.2505 5.80234 17.12 5.80234 16.889V13.9345ZM6.48055 14.2331V15.5404H7.33877C7.68334 15.5404 7.95591 15.23 7.95591 14.9045C7.95591 14.5376 7.68334 14.2331 7.33877 14.2331H6.48055ZM9.61577 17.2505C9.44605 17.2505 9.26091 17.156 9.26091 16.9257V13.945C9.26091 13.7567 9.44605 13.6195 9.61577 13.6195H10.7928C13.1418 13.6195 13.0904 17.2505 10.8391 17.2505H9.61577ZM9.93977 14.26V16.6107H10.7928C12.1808 16.6107 12.2425 14.26 10.7928 14.26H9.93977ZM13.9236 14.302V15.1361H15.2343C15.4195 15.1361 15.6046 15.3251 15.6046 15.5082C15.6046 15.6815 15.4195 15.8232 15.2343 15.8232H13.9236V16.925C13.9236 17.1088 13.7956 17.2499 13.6156 17.2499C13.3893 17.2499 13.2511 17.1088 13.2511 16.925V13.9444C13.2511 13.756 13.39 13.6189 13.6156 13.6189H15.4201C15.6464 13.6189 15.7801 13.756 15.7801 13.9444C15.7801 14.1124 15.6464 14.3014 15.4201 14.3014H13.9236V14.302Z" fill="white"/>
<path d="M17.7858 19.2188H5.5715V19.875H17.7858C18.1394 19.875 18.4286 19.5797 18.4286 19.2188V18.5625C18.4286 18.9234 18.1394 19.2188 17.7858 19.2188Z" fill="#CAD1D8"/>
</svg>
