<svg width="36" height="36" viewBox="0 0 36 36" fill="none" xmlns="http://www.w3.org/2000/svg">
<rect width="36" height="36" rx="7" fill="#FFF5F5"/>
<path d="M18 8C12.47 8 8 12.47 8 18C8 23.53 12.47 28 18 28C23.53 28 28 23.53 28 18C28 12.47 23.53 8 18 8ZM18 26C13.59 26 10 22.41 10 18C10 13.59 13.59 10 18 10C22.41 10 26 13.59 26 18C26 22.41 22.41 26 18 26ZM21.59 13L18 16.59L14.41 13L13 14.41L16.59 18L13 21.59L14.41 23L18 19.41L21.59 23L23 21.59L19.41 18L23 14.41L21.59 13Z" fill="#D44A4A"/>
</svg>
