<svg width="16" height="16" viewBox="0 0 16 16" fill="none" xmlns="http://www.w3.org/2000/svg">
<path d="M11.3514 9.87916H10.6931L10.4598 9.65416C11.2764 8.70416 11.7681 7.47083 11.7681 6.12916C11.7681 3.13749 9.34309 0.712494 6.35142 0.712494C3.35975 0.712494 0.934753 3.13749 0.934753 6.12916C0.934753 9.12083 3.35975 11.5458 6.35142 11.5458C7.69309 11.5458 8.92642 11.0542 9.87642 10.2375L10.1014 10.4708V11.1292L14.2681 15.2875L15.5098 14.0458L11.3514 9.87916ZM6.35142 9.87916C4.27642 9.87916 2.60142 8.20416 2.60142 6.12916C2.60142 4.05416 4.27642 2.37916 6.35142 2.37916C8.42642 2.37916 10.1014 4.05416 10.1014 6.12916C10.1014 8.20416 8.42642 9.87916 6.35142 9.87916Z" fill="white"/>
</svg>
