<svg width="20" height="20" viewBox="0 0 20 20" fill="none" xmlns="http://www.w3.org/2000/svg">
<path d="M16.1935 10.8167C16.2268 10.55 16.2518 10.2833 16.2518 10C16.2518 9.71666 16.2268 9.45 16.1935 9.18333L17.9518 7.80833C18.1102 7.68333 18.1518 7.45833 18.0518 7.275L16.3852 4.39166C16.3102 4.25833 16.1685 4.18333 16.0185 4.18333C15.9685 4.18333 15.9185 4.19166 15.8768 4.20833L13.8018 5.04166C13.3685 4.70833 12.9018 4.43333 12.3935 4.225L12.0768 2.01666C12.0518 1.81666 11.8768 1.66666 11.6685 1.66666H8.33518C8.12684 1.66666 7.95184 1.81666 7.92684 2.01666L7.61018 4.225C7.10184 4.43333 6.63518 4.71666 6.20184 5.04166L4.12684 4.20833C4.07684 4.19166 4.02684 4.18333 3.97684 4.18333C3.83518 4.18333 3.69351 4.25833 3.61851 4.39166L1.95184 7.275C1.84351 7.45833 1.89351 7.68333 2.05184 7.80833L3.81018 9.18333C3.77684 9.45 3.75184 9.725 3.75184 10C3.75184 10.275 3.77684 10.55 3.81018 10.8167L2.05184 12.1917C1.89351 12.3167 1.85184 12.5417 1.95184 12.725L3.61851 15.6083C3.69351 15.7417 3.83518 15.8167 3.98518 15.8167C4.03518 15.8167 4.08518 15.8083 4.12684 15.7917L6.20184 14.9583C6.63518 15.2917 7.10184 15.5667 7.61018 15.775L7.92684 17.9833C7.95184 18.1833 8.12684 18.3333 8.33518 18.3333H11.6685C11.8768 18.3333 12.0518 18.1833 12.0768 17.9833L12.3935 15.775C12.9018 15.5667 13.3685 15.2833 13.8018 14.9583L15.8768 15.7917C15.9268 15.8083 15.9768 15.8167 16.0268 15.8167C16.1685 15.8167 16.3102 15.7417 16.3852 15.6083L18.0518 12.725C18.1518 12.5417 18.1102 12.3167 17.9518 12.1917L16.1935 10.8167ZM14.5435 9.39166C14.5768 9.65 14.5852 9.825 14.5852 10C14.5852 10.175 14.5685 10.3583 14.5435 10.6083L14.4268 11.55L15.1685 12.1333L16.0685 12.8333L15.4852 13.8417L14.4268 13.4167L13.5602 13.0667L12.8102 13.6333C12.4518 13.9 12.1102 14.1 11.7685 14.2417L10.8852 14.6L10.7518 15.5417L10.5852 16.6667H9.41851L9.12684 14.6L8.24351 14.2417C7.88518 14.0917 7.55184 13.9 7.21851 13.65L6.46018 13.0667L5.57684 13.425L4.51851 13.85L3.93518 12.8417L4.83518 12.1417L5.57684 11.5583L5.46018 10.6167C5.43518 10.3583 5.41851 10.1667 5.41851 10C5.41851 9.83333 5.43518 9.64166 5.46018 9.39166L5.57684 8.45L4.83518 7.86666L3.93518 7.16666L4.51851 6.15833L5.57684 6.58333L6.44351 6.93333L7.19351 6.36666C7.55184 6.1 7.89351 5.9 8.23518 5.75833L9.11851 5.4L9.25184 4.45833L9.41851 3.33333H10.5768L10.8685 5.4L11.7518 5.75833C12.1102 5.90833 12.4435 6.1 12.7768 6.35L13.5352 6.93333L14.4185 6.575L15.4768 6.15L16.0602 7.15833L15.1685 7.86666L14.4268 8.45L14.5435 9.39166ZM10.0018 6.66666C8.16018 6.66666 6.66851 8.15833 6.66851 10C6.66851 11.8417 8.16018 13.3333 10.0018 13.3333C11.8435 13.3333 13.3352 11.8417 13.3352 10C13.3352 8.15833 11.8435 6.66666 10.0018 6.66666ZM10.0018 11.6667C9.08518 11.6667 8.33518 10.9167 8.33518 10C8.33518 9.08333 9.08518 8.33333 10.0018 8.33333C10.9185 8.33333 11.6685 9.08333 11.6685 10C11.6685 10.9167 10.9185 11.6667 10.0018 11.6667Z" fill="#40566D"/>
</svg>
