<svg width="14" height="14" viewBox="0 0 14 14" fill="none" xmlns="http://www.w3.org/2000/svg">
<path d="M7.00016 0.333374C3.32016 0.333374 0.333496 3.32004 0.333496 7.00004C0.333496 10.68 3.32016 13.6667 7.00016 13.6667C10.6802 13.6667 13.6668 10.68 13.6668 7.00004C13.6668 3.32004 10.6802 0.333374 7.00016 0.333374ZM5.1935 9.86004L2.80016 7.46671C2.54016 7.20671 2.54016 6.78671 2.80016 6.52671C3.06016 6.26671 3.48016 6.26671 3.74016 6.52671L5.66683 8.44671L10.2535 3.86004C10.5135 3.60004 10.9335 3.60004 11.1935 3.86004C11.4535 4.12004 11.4535 4.54004 11.1935 4.80004L6.1335 9.86004C5.88016 10.12 5.4535 10.12 5.1935 9.86004Z" fill="white"/>
</svg>
